# xmcd
#
# Track frame offsets:
#	150
#	14468
#	25098
#	40118
#	53680
#	68220
#	79282
#	92847
#	103955
#	116245
#
# Disc length: 1718 seconds
#
# Revision: 1
# Processed by: cddbd v1.5.2PL0 Copyright (c) Steve Scherf et al.
# Submitted via: audiograbber 1.83.01
#
DISCID=8206b40a
DTITLE=Jim Mundy - How Many Thanks Jim Mundy
DYEAR=2006
DGENRE=Country
TTITLE0=How Many Thanks
TTITLE1=Bust Out
TTITLE2=Half As Much Fun
TTITLE3=I´ll Leave It All Up To You
TTITLE4=B Western Heroes
TTITLE5=How Was Heaven When You Left
TTITLE6=If She Calls
TTITLE7=Sugar Free
TTITLE8=I´ll Love You All Over Again
TTITLE9=With The Sun At My Back
EXTD=
EXTT0=
EXTT1=
EXTT2=
EXTT3=
EXTT4=
EXTT5=
EXTT6=
EXTT7=
EXTT8=
EXTT9=
PLAYORDER=
